<mxfile host="65bd71144e">
    <diagram id="zrw3Qm_dVd5Ozi2h2lEB" name="Page-1">
        <mxGraphModel dx="1127" dy="779" grid="1" gridSize="10" guides="1" tooltips="1" connect="1" arrows="1" fold="1" page="1" pageScale="1" pageWidth="850" pageHeight="1100" math="0" shadow="0">
            <root>
                <mxCell id="0"/>
                <mxCell id="1" parent="0"/>
                <mxCell id="11" style="edgeStyle=none;html=1;exitX=0;exitY=0.5;exitDx=0;exitDy=0;fontSize=16;fillColor=#1ba1e2;strokeColor=#006EAF;strokeWidth=5;" parent="1" source="3" target="6" edge="1">
                    <mxGeometry relative="1" as="geometry">
                        <Array as="points">
                            <mxPoint x="170" y="755"/>
                        </Array>
                    </mxGeometry>
                </mxCell>
                <mxCell id="12" style="edgeStyle=none;html=1;exitX=1;exitY=0.5;exitDx=0;exitDy=0;entryX=0.5;entryY=1;entryDx=0;entryDy=0;strokeWidth=5;fontSize=16;fillColor=#1ba1e2;strokeColor=#006EAF;" parent="1" source="3" target="7" edge="1">
                    <mxGeometry relative="1" as="geometry">
                        <Array as="points">
                            <mxPoint x="720" y="755"/>
                        </Array>
                    </mxGeometry>
                </mxCell>
                <mxCell id="13" style="edgeStyle=none;html=1;exitX=0.25;exitY=0;exitDx=0;exitDy=0;strokeWidth=5;fontSize=16;fillColor=#1ba1e2;strokeColor=#006EAF;entryX=0.5;entryY=1;entryDx=0;entryDy=0;" parent="1" source="3" target="5" edge="1">
                    <mxGeometry relative="1" as="geometry">
                        <mxPoint x="260" y="645" as="targetPoint"/>
                        <Array as="points"/>
                    </mxGeometry>
                </mxCell>
                <mxCell id="15" style="edgeStyle=none;html=1;exitX=0.75;exitY=0;exitDx=0;exitDy=0;entryX=0.5;entryY=1;entryDx=0;entryDy=0;strokeWidth=5;fontSize=16;fillColor=#1ba1e2;strokeColor=#006EAF;" parent="1" source="3" target="4" edge="1">
                    <mxGeometry relative="1" as="geometry"/>
                </mxCell>
                <mxCell id="3" value="Time Server" style="rounded=1;whiteSpace=wrap;html=1;fontSize=16;fillColor=#1ba1e2;fontColor=#ffffff;strokeColor=#006EAF;" parent="1" vertex="1">
                    <mxGeometry x="270" y="725" width="350" height="60" as="geometry"/>
                </mxCell>
                <mxCell id="27" style="edgeStyle=none;html=1;exitX=0.5;exitY=1;exitDx=0;exitDy=0;entryX=1;entryY=0;entryDx=0;entryDy=0;strokeWidth=5;fontSize=16;fillColor=#e51400;strokeColor=#B20000;" parent="1" source="4" target="5" edge="1">
                    <mxGeometry relative="1" as="geometry"/>
                </mxCell>
                <mxCell id="28" style="edgeStyle=none;html=1;exitX=0;exitY=1;exitDx=0;exitDy=0;entryX=1;entryY=0;entryDx=0;entryDy=0;strokeWidth=5;fontSize=16;fontColor=#000000;fillColor=#e51400;strokeColor=#B20000;" parent="1" source="4" target="6" edge="1">
                    <mxGeometry relative="1" as="geometry"/>
                </mxCell>
                <mxCell id="29" style="edgeStyle=none;html=1;exitX=1;exitY=1;exitDx=0;exitDy=0;entryX=0;entryY=0;entryDx=0;entryDy=0;strokeWidth=5;fontSize=16;fontColor=#000000;fillColor=#e51400;strokeColor=#B20000;" parent="1" source="4" target="7" edge="1">
                    <mxGeometry relative="1" as="geometry"/>
                </mxCell>
                <mxCell id="4" value="&lt;font color=&quot;#000000&quot;&gt;Periodic Dispatcher&lt;/font&gt;" style="rounded=1;whiteSpace=wrap;html=1;fontSize=16;fillColor=#e51400;fontColor=#ffffff;strokeColor=#B20000;" parent="1" vertex="1">
                    <mxGeometry x="347.5" y="315" width="195" height="60" as="geometry"/>
                </mxCell>
                <mxCell id="26" style="edgeStyle=none;html=1;exitX=0.5;exitY=0;exitDx=0;exitDy=0;entryX=0.5;entryY=1;entryDx=0;entryDy=0;strokeWidth=5;fontSize=16;fillColor=#60a917;strokeColor=#2D7600;" parent="1" source="5" target="16" edge="1">
                    <mxGeometry relative="1" as="geometry"/>
                </mxCell>
                <mxCell id="5" value="Server" style="rounded=1;whiteSpace=wrap;html=1;fontSize=16;fillColor=#f0a30a;fontColor=#000000;strokeColor=#BD7000;" parent="1" vertex="1">
                    <mxGeometry x="210" y="585" width="200" height="60" as="geometry"/>
                </mxCell>
                <mxCell id="6" value="Encrypt" style="rounded=1;whiteSpace=wrap;html=1;fontSize=16;fillColor=#f0a30a;fontColor=#000000;strokeColor=#BD7000;" parent="1" vertex="1">
                    <mxGeometry x="110" y="405" width="120" height="60" as="geometry"/>
                </mxCell>
                <mxCell id="25" style="edgeStyle=none;html=1;exitX=0;exitY=1;exitDx=0;exitDy=0;entryX=1;entryY=0.5;entryDx=0;entryDy=0;strokeWidth=5;fontSize=16;fillColor=#60a917;strokeColor=#2D7600;" parent="1" source="7" target="17" edge="1">
                    <mxGeometry relative="1" as="geometry"/>
                </mxCell>
                <mxCell id="7" value="Decrypt" style="rounded=1;whiteSpace=wrap;html=1;fontSize=16;fillColor=#f0a30a;fontColor=#000000;strokeColor=#BD7000;" parent="1" vertex="1">
                    <mxGeometry x="660" y="405" width="120" height="60" as="geometry"/>
                </mxCell>
                <mxCell id="16" value="monitor" style="rounded=1;whiteSpace=wrap;html=1;fontSize=16;fillColor=#6d8764;fontColor=#ffffff;strokeColor=#3A5431;" parent="1" vertex="1">
                    <mxGeometry x="280" y="465" width="120" height="60" as="geometry"/>
                </mxCell>
                <mxCell id="17" value="monitor" style="rounded=1;whiteSpace=wrap;html=1;fontSize=16;fillColor=#6d8764;fontColor=#ffffff;strokeColor=#3A5431;" parent="1" vertex="1">
                    <mxGeometry x="490" y="465" width="120" height="60" as="geometry"/>
                </mxCell>
                <mxCell id="21" value="" style="endArrow=classic;startArrow=classic;html=1;strokeWidth=5;fontSize=16;exitX=1;exitY=0.5;exitDx=0;exitDy=0;fillColor=#60a917;strokeColor=#2D7600;" parent="1" source="6" target="16" edge="1">
                    <mxGeometry width="50" height="50" relative="1" as="geometry">
                        <mxPoint x="260" y="435" as="sourcePoint"/>
                        <mxPoint x="310" y="385" as="targetPoint"/>
                    </mxGeometry>
                </mxCell>
                <mxCell id="22" value="" style="endArrow=classic;startArrow=classic;html=1;strokeWidth=5;fontSize=16;entryX=0.75;entryY=0;entryDx=0;entryDy=0;exitX=0.5;exitY=1;exitDx=0;exitDy=0;fillColor=#60a917;strokeColor=#2D7600;" parent="1" source="17" target="5" edge="1">
                    <mxGeometry width="50" height="50" relative="1" as="geometry">
                        <mxPoint x="590" y="455" as="sourcePoint"/>
                        <mxPoint x="660" y="475" as="targetPoint"/>
                    </mxGeometry>
                </mxCell>
            </root>
        </mxGraphModel>
    </diagram>
</mxfile>